HIERARCHY
ROOT Hips
{
    OFFSET   0.000000   0.000000   0.000000
    CHANNELS 6 Xposition Yposition Zposition Zrotation Xrotation Yrotation
    JOINT Chest
    {
        OFFSET   0.000000   8.007240   0.000000
        CHANNELS 3 Zrotation Xrotation Yrotation
        JOINT Chest2
        {
            OFFSET   0.000000  22.077100   0.000000
            CHANNELS 3 Zrotation Xrotation Yrotation
            JOINT Neck
            {
                OFFSET   0.000000  23.254800   0.000000
                CHANNELS 3 Zrotation Xrotation Yrotation
                JOINT Head
                {
                    OFFSET   0.000000  14.370000   1.956600
                    CHANNELS 3 Zrotation Xrotation Yrotation
                    End Site
                    {
                        OFFSET   0.000000  19.566000   0.000000
                    }
                }
            }
            JOINT LeftCollar
            {
                OFFSET   3.911900  19.017000  -0.467064
                CHANNELS 3 Zrotation Xrotation Yrotation
                JOINT LeftShoulder
                {
                    OFFSET  10.383700   0.000000   0.000000
                    CHANNELS 3 Zrotation Xrotation Yrotation
                    JOINT LeftElbow
                    {
                        OFFSET  26.662100   0.001476   0.000517
                        CHANNELS 3 Zrotation Xrotation Yrotation
                        JOINT LeftWrist
                        {
                            OFFSET  28.869000  -0.000025  -0.000106
                            CHANNELS 3 Zrotation Xrotation Yrotation
                            JOINT LeftFinger0
                            {
                                OFFSET   2.044660  -2.323460   3.252850
                                CHANNELS 3 Zrotation Xrotation Yrotation
                                JOINT LeftFinger01
                                {
                                    OFFSET   3.088130   0.000000   0.000000
                                    CHANNELS 3 Zrotation Xrotation Yrotation
                                    JOINT LeftFinger02
                                    {
                                        OFFSET   2.639460   0.000000   0.000000
                                        CHANNELS 3 Zrotation Xrotation Yrotation
                                        End Site
                                        {
                                            OFFSET   2.582190   0.000000   0.000000
                                        }
                                    }
                                }
                            }
                            JOINT LeftFinger1
                            {
                                OFFSET   8.364480   0.000000   3.252850
                                CHANNELS 3 Zrotation Xrotation Yrotation
                                JOINT LeftFinger11
                                {
                                    OFFSET   4.646930   0.000000   0.000000
                                    CHANNELS 3 Zrotation Xrotation Yrotation
                                    JOINT LeftFinger12
                                    {
                                        OFFSET   2.323460   0.000000   0.000000
                                        CHANNELS 3 Zrotation Xrotation Yrotation
                                        End Site
                                        {
                                            OFFSET   2.273050   0.000000   0.000000
                                        }
                                    }
                                }
                            }
                            JOINT LeftFinger2
                            {
                                OFFSET   8.364490   0.000015   1.078090
                                CHANNELS 3 Zrotation Xrotation Yrotation
                                JOINT LeftFinger21
                                {
                                    OFFSET   5.111620   0.000000   0.000000
                                    CHANNELS 3 Zrotation Xrotation Yrotation
                                    JOINT LeftFinger22
                                    {
                                        OFFSET   2.788160   0.000016   0.000000
                                        CHANNELS 3 Zrotation Xrotation Yrotation
                                        End Site
                                        {
                                            OFFSET   2.727660   0.000000   0.000000
                                        }
                                    }
                                }
                            }
                            JOINT LeftFinger3
                            {
                                OFFSET   7.899780   0.000017  -1.078090
                                CHANNELS 3 Zrotation Xrotation Yrotation
                                JOINT LeftFinger31
                                {
                                    OFFSET   4.646930   0.000000   0.000000
                                    CHANNELS 3 Zrotation Xrotation Yrotation
                                    JOINT LeftFinger32
                                    {
                                        OFFSET   2.323470   0.000000   0.000000
                                        CHANNELS 3 Zrotation Xrotation Yrotation
                                        End Site
                                        {
                                            OFFSET   2.273050   0.000000   0.000000
                                        }
                                    }
                                }
                            }
                            JOINT LeftFinger4
                            {
                                OFFSET   7.435090   0.000000  -3.252850
                                CHANNELS 3 Zrotation Xrotation Yrotation
                                JOINT LeftFinger41
                                {
                                    OFFSET   3.717550   0.000000   0.000000
                                    CHANNELS 3 Zrotation Xrotation Yrotation
                                    JOINT LeftFinger42
                                    {
                                        OFFSET   1.858770   0.000000   0.000000
                                        CHANNELS 3 Zrotation Xrotation Yrotation
                                        End Site
                                        {
                                            OFFSET   1.818440   0.000000   0.000000
                                        }
                                    }
                                }
                            }
                        }
                    }
                }
            }
            JOINT RightCollar
            {
                OFFSET  -3.911900  19.017000  -0.467063
                CHANNELS 3 Zrotation Xrotation Yrotation
                JOINT RightShoulder
                {
                    OFFSET -10.383700   0.000019   0.000000
                    CHANNELS 3 Zrotation Xrotation Yrotation
                    JOINT RightElbow
                    {
                        OFFSET -26.662100   0.001175   0.000102
                        CHANNELS 3 Zrotation Xrotation Yrotation
                        JOINT RightWrist
                        {
                            OFFSET -28.869000   0.000016  -0.000079
                            CHANNELS 3 Zrotation Xrotation Yrotation
                            JOINT RightFinger0
                            {
                                OFFSET  -2.044660  -2.323490   3.252850
                                CHANNELS 3 Zrotation Xrotation Yrotation
                                JOINT RightFinger01
                                {
                                    OFFSET  -3.088140   0.000000   0.000000
                                    CHANNELS 3 Zrotation Xrotation Yrotation
                                    JOINT RightFinger02
                                    {
                                        OFFSET  -2.639460   0.000000   0.000000
                                        CHANNELS 3 Zrotation Xrotation Yrotation
                                        End Site
                                        {
                                            OFFSET  -2.582190   0.000000   0.000000
                                        }
                                    }
                                }
                            }
                            JOINT RightFinger1
                            {
                                OFFSET  -8.364480   0.000000   3.252850
                                CHANNELS 3 Zrotation Xrotation Yrotation
                                JOINT RightFinger11
                                {
                                    OFFSET  -4.646930   0.000000   0.000000
                                    CHANNELS 3 Zrotation Xrotation Yrotation
                                    JOINT RightFinger12
                                    {
                                        OFFSET  -2.323470   0.000000   0.000000
                                        CHANNELS 3 Zrotation Xrotation Yrotation
                                        End Site
                                        {
                                            OFFSET  -2.273050   0.000000   0.000000
                                        }
                                    }
                                }
                            }
                            JOINT RightFinger2
                            {
                                OFFSET  -8.364480   0.000000   1.078090
                                CHANNELS 3 Zrotation Xrotation Yrotation
                                JOINT RightFinger21
                                {
                                    OFFSET  -5.111620   0.000000   0.000000
                                    CHANNELS 3 Zrotation Xrotation Yrotation
                                    JOINT RightFinger22
                                    {
                                        OFFSET  -2.788160   0.000000   0.000000
                                        CHANNELS 3 Zrotation Xrotation Yrotation
                                        End Site
                                        {
                                            OFFSET  -2.727660   0.000000   0.000000
                                        }
                                    }
                                }
                            }
                            JOINT RightFinger3
                            {
                                OFFSET  -7.899780   0.000000  -1.078090
                                CHANNELS 3 Zrotation Xrotation Yrotation
                                JOINT RightFinger31
                                {
                                    OFFSET  -4.646930   0.000000   0.000000
                                    CHANNELS 3 Zrotation Xrotation Yrotation
                                    JOINT RightFinger32
                                    {
                                        OFFSET  -2.323470   0.000000   0.000000
                                        CHANNELS 3 Zrotation Xrotation Yrotation
                                        End Site
                                        {
                                            OFFSET  -2.273050   0.000000   0.000000
                                        }
                                    }
                                }
                            }
                            JOINT RightFinger4
                            {
                                OFFSET  -7.435090   0.000000  -3.252850
                                CHANNELS 3 Zrotation Xrotation Yrotation
                                JOINT RightFinger41
                                {
                                    OFFSET  -3.717550   0.000000   0.000000
                                    CHANNELS 3 Zrotation Xrotation Yrotation
                                    JOINT RightFinger42
                                    {
                                        OFFSET  -1.858770   0.000000   0.000000
                                        CHANNELS 3 Zrotation Xrotation Yrotation
                                        End Site
                                        {
                                            OFFSET  -1.818440   0.000000   0.000000
                                        }
                                    }
                                }
                            }
                        }
                    }
                }
            }
        }
    }
    JOINT LeftHip
    {
        OFFSET   9.783040   0.000000   0.000000
        CHANNELS 3 Zrotation Xrotation Yrotation
        JOINT LeftKnee
        {
            OFFSET   0.000032 -41.789100  -0.002222
            CHANNELS 3 Zrotation Xrotation Yrotation
            JOINT LeftAnkle
            {
                OFFSET   0.000087 -41.133200  -0.000135
                CHANNELS 3 Zrotation Xrotation Yrotation
                JOINT LeftToe
                {
                    OFFSET   0.000000  -6.358960  14.674500
                    CHANNELS 3 Zrotation Xrotation Yrotation
                    End Site
                    {
                        OFFSET   0.000000   0.000000   3.913200
                    }
                }
            }
        }
    }
    JOINT RightHip
    {
        OFFSET  -9.783040   0.000000   0.000000
        CHANNELS 3 Zrotation Xrotation Yrotation
        JOINT RightKnee
        {
            OFFSET   0.000047 -41.789100  -0.000896
            CHANNELS 3 Zrotation Xrotation Yrotation
            JOINT RightAnkle
            {
                OFFSET  -0.000117 -41.133300  -0.000248
                CHANNELS 3 Zrotation Xrotation Yrotation
                JOINT RightToe
                {
                    OFFSET   0.000000  -6.358970  14.674500
                    CHANNELS 3 Zrotation Xrotation Yrotation
                    End Site
                    {
                        OFFSET   0.000000   0.000000   3.913200
                    }
                }
            }
        }
    }
}
MOTION
Frames: 4
Frame Time:   0.016667
 -1.756910  89.444600   2.147990  -1.720430  -8.227200   1.839360   1.668970   5.730120  -1.990500   3.564790  11.395700  -4.180120   2.793270  -2.059720   0.099897   4.605330  -4.147230   8.899700 -11.383200   0.447793  -1.606860 -50.622700  32.535500 -56.700000  -3.438270   3.263820 -119.303000  16.882400  30.064800 -19.633800  32.604900  22.394000 -66.076500 -29.465200   0.000857   0.000353  -9.732590   0.000045   0.000000 -63.367600   9.566780  -4.763740 -52.172400  -0.001777   0.002754 -39.129300   0.000683  -0.001770 -62.161000   2.384110  -1.270850 -62.187500  -0.002518   0.000543 -46.640700  -0.000317  -0.002149 -62.350800  -0.847928   0.445649 -62.355000  -0.001276   0.000612 -46.766300   0.004507  -0.003136 -67.099700  -9.225900   3.874140 -101.118000   0.001333  -0.002946 -67.345000   0.001262   0.002008   9.064340  -2.468000  13.564800  69.396200  22.031300   4.942890  -2.015720   1.172340  13.140900 -20.616500 -12.630100  -2.437050 -38.012300  39.420400  77.125900  34.705000   0.006992  -0.004761  12.357300   0.003721  -0.004250  48.503100   8.270040   7.250780  40.116200   0.000102  -0.003693  29.992100  -0.005808   0.001048  35.682400   3.093860   4.308300  53.704200   0.000086   0.002594  35.760400  -0.006353   0.005743  40.916300   2.123280   2.450260  54.377700   0.002191   0.002153  37.568400   0.000304   0.003278  49.723300  -4.413190  -3.734930  74.802700  -0.002396   0.002376  49.817500  -0.002571   0.009182   4.007050  11.874600   3.300270   0.441717   0.513756  12.367300  -3.701990  -3.142200   3.727270  -0.000000   0.000000   0.000000   1.839730   8.133540  -7.248250   1.830580   3.829400  -7.897240  -4.527710  -4.062410  -0.181721   0.000000   0.000000  -0.000000
 -1.746280  89.444500   2.149770  -1.723110  -8.216440   1.835420   1.671740   5.730520  -1.991640   3.570490  11.396400  -4.182710   2.778640  -2.037740   0.098903   4.580940  -4.103090   8.912530 -11.382100   0.448189  -1.612730 -50.436600  32.584500 -56.877300  -3.484670   3.134200 -119.282000  16.973400  30.461300 -19.792000  32.745800  22.572000 -66.115500 -29.366200   0.000866   0.000299  -9.683090   0.000000   0.000000 -63.342400   9.571440  -4.771350 -52.152500  -0.001796   0.003084 -39.114400   0.000685  -0.001776 -62.111800   2.176660  -1.150100 -62.132500  -0.002504   0.000610 -46.599400  -0.000292  -0.002193 -62.347200  -0.631143   0.330630 -62.349000  -0.001315   0.000685 -46.761700   0.004709  -0.003186 -67.096200  -9.225630   3.874610 -101.113000   0.001396  -0.003029 -67.341500   0.001300   0.002099   9.063720  -2.467540  13.568300  69.386100  22.047200   4.943000  -2.011440   1.151530  13.136000 -20.621800 -12.615900  -2.432240 -38.017500  39.425700  77.140700  34.701300   0.007267  -0.004925  12.356600   0.003745  -0.004383  48.503400   8.279200   7.259390  40.115000   0.000000  -0.003581  29.991000  -0.005826   0.000947  35.682500   3.092980   4.305000  53.708300   0.000095   0.002543  35.761200  -0.006587   0.005746  40.951100   2.127820   2.451600  54.377800   0.002326   0.002088  37.578600   0.000304   0.003248  49.724000  -4.412600  -3.734830  74.805600  -0.002396   0.002590  49.818200  -0.002563   0.009733   4.002250  11.867700   3.304500   0.439878   0.508440  12.368000  -3.697490  -3.138660   3.726140  -0.000000   0.000000   0.000000   1.835180   8.132740  -7.255200   1.835000   3.820070  -7.884420  -4.526160  -4.058060  -0.182403   0.000000   0.000000   0.000000
 -1.738020  89.444400   2.151020  -1.727260  -8.209170   1.830500   1.676070   5.730870  -1.994400   3.579510  11.396800  -4.188690   2.762890  -2.019770   0.098644   4.555860  -4.067150   8.919190 -11.378300   0.451507  -1.610310 -50.261200  32.631300 -57.052600  -3.561210   2.962920 -119.242000  17.260500  30.687700 -20.158300  32.615700  22.748100 -66.269500 -29.736800  -0.003996   0.000305  -9.868340   0.000000   0.000000 -63.548600   9.533000  -4.709960 -52.316000  -0.001822   0.003406 -39.237000   0.000687  -0.001787 -62.179800   2.094430  -1.099730 -62.208200  -0.002495   0.000678 -46.656200  -0.000268  -0.002243 -62.392400  -0.642725   0.336808 -62.395600  -0.001359   0.000755 -46.796700   0.004907  -0.003234 -67.136500  -9.231070   3.868860 -101.173000   0.001460  -0.003116 -67.381500   0.001336   0.002187   9.064600  -2.465210  13.573600  69.372900  22.055800   4.945880  -2.012860   1.146880  13.133800 -20.624800 -12.595300  -2.432300 -38.020100  39.422500  77.132600  34.703300   0.007525  -0.005087  12.355800   0.003754  -0.004526  48.495100   8.276140   7.261390  40.107900  -0.000135  -0.003460  29.983900  -0.005819   0.000827  35.682900   3.091950   4.298530  53.704900   0.000105   0.002482  35.762200  -0.006825   0.005747  40.962600   2.125400   2.447410  54.377800   0.002460   0.002028  37.582000   0.000295   0.003214  49.724400  -4.411940  -3.734740  74.805300  -0.002395   0.002820  49.818500  -0.002558   0.010281   4.000970  11.857800   3.305990   0.437239   0.514596  12.368300  -3.695490  -3.144580   3.727320  -0.000000   0.000000  -0.000000   1.834290   8.126590  -7.261120   1.840630   3.818450  -7.873270  -4.530180  -4.054030  -0.183033  -0.000000   0.000000   0.000000
 -1.731690  89.444300   2.152240  -1.731450  -8.202640   1.824280   1.680190   5.731160  -1.996630   3.588050  11.397200  -4.193640   2.753770  -2.003660   0.098558   4.539430  -4.034850   8.921260 -11.372900   0.455430  -1.605440 -50.105100  32.664100 -57.200800  -3.661760   2.784810 -119.189000  17.684300  30.704400 -20.721900  32.453700  22.858500 -66.362500 -30.107300  -0.008858   0.000318 -10.053600   0.000000   0.000000 -63.957600   9.455180  -4.588850 -52.640300  -0.001855   0.003725 -39.480200   0.000688  -0.001799 -62.383600   1.867200  -0.945475 -62.416700  -0.002492   0.000746 -46.812600  -0.000242  -0.002297 -62.590000  -0.723802   0.380056 -62.594500  -0.001406   0.000825 -46.945900   0.005105  -0.003276 -67.332800  -9.247610   3.838370 -101.465000   0.001524  -0.003203 -67.575700   0.001375   0.002275   9.066770  -2.460810  13.579200  69.359600  22.060100   4.951140  -2.015590   1.146230  13.130700 -20.629400 -12.581600  -2.433960 -38.021100  39.415900  77.120000  34.706800   0.007883  -0.005321  12.355100   0.003780  -0.004675  48.487100   8.271910   7.261890  40.101800  -0.000372  -0.003341  29.977800  -0.005812   0.000701  35.683400   3.091350   4.294010  53.701600   0.000116   0.002418  35.763400  -0.007059   0.005748  40.965100   2.121530   2.441500  54.377800   0.002584   0.001967  37.582700   0.000279   0.003178  49.724600  -4.411370  -3.734650  74.802800  -0.002394   0.003064  49.818700  -0.002553   0.010830   4.000070  11.851200   3.306570   0.433910   0.520752  12.368600  -3.693510  -3.150490   3.732180   0.000000   0.000000  -0.000000   1.833660   8.117420  -7.266590   1.845960   3.818030  -7.862810  -4.536850  -4.049870  -0.183360  -0.000000   0.000000   0.000000
